<svg xmlns="http://www.w3.org/2000/svg" width="30" height="30" fill="none" viewBox="0 0 30 30">
  <path stroke="#000" stroke-width="1.875" d="M3.8 5.367a.62.62 0 0 1 .239-.598C4.909 4.15 7.893 2.5 15 2.5c7.108 0 10.091 1.65 10.961 2.269a.62.62 0 0 1 .24.598l-2.125 15.93a5 5 0 0 1-2.475 3.68l-.4.23a12.501 12.501 0 0 1-12.402 0l-.4-.23a5 5 0 0 1-2.475-3.68L3.8 5.367Z"/>
  <path stroke="#000" stroke-width="1.875" d="M3.75 6.25c3.214 3.334 19.286 3.334 22.5 0M13.75 22.5l3.75-4.375M13.75 22.5l-3.494-2.911a.75.75 0 0 0-.586-.166L5.625 20m8.125 2.5 3.75 3.75m0-8.125 6.25 3.125m-6.25-3.125 7.5-3.75m-7.5 3.75-3.181-2.651a.75.75 0 0 0-1.05.088L10 19.375"/>
</svg>
